/* XPM */
static char * crawl_xpm[] = {
"32 32 363 2",
"  	c None",
". 	c #8A5000",
"+ 	c #A72200",
"@ 	c #5F3000",
"# 	c #AF3300",
"$ 	c #000000",
"% 	c #FF9700",
"& 	c #0F0000",
"* 	c #323232",
"= 	c #282828",
"- 	c #B3B3B3",
"; 	c #BFBFBF",
"> 	c #D0D0D0",
", 	c #999999",
"' 	c #A0A0A0",
") 	c #8D8D8D",
"! 	c #909090",
"~ 	c #808080",
"{ 	c #797979",
"] 	c #727272",
"^ 	c #181818",
"/ 	c #1E1E1E",
"( 	c #D67500",
"_ 	c #5C0800",
": 	c #979797",
"< 	c #BABABA",
"[ 	c #5C5C5C",
"} 	c #595958",
"| 	c #353433",
"1 	c #191817",
"2 	c #1B1A18",
"3 	c #302F2C",
"4 	c #2D2C29",
"5 	c #2E2D2A",
"6 	c #30302D",
"7 	c #21201E",
"8 	c #1E1E1C",
"9 	c #31302F",
"0 	c #414141",
"a 	c #474747",
"b 	c #6D6968",
"c 	c #825E53",
"d 	c #CB3A00",
"e 	c #140604",
"f 	c #151515",
"g 	c #FFFFFF",
"h 	c #5D5E60",
"i 	c #0C0D11",
"j 	c #101112",
"k 	c #1F1C13",
"l 	c #1C1A11",
"m 	c #363121",
"n 	c #342D1D",
"o 	c #48412C",
"p 	c #483F2A",
"q 	c #352F20",
"r 	c #363222",
"s 	c #1C1910",
"t 	c #1E1B12",
"u 	c #0E0F10",
"v 	c #090A0E",
"w 	c #09090C",
"x 	c #6D2208",
"y 	c #B43103",
"z 	c #14191B",
"A 	c #D2D2D1",
"B 	c #2C2510",
"C 	c #7F6B2D",
"D 	c #796328",
"E 	c #7F6A2C",
"F 	c #A78935",
"G 	c #B28E2C",
"H 	c #D9B144",
"I 	c #F3DD7B",
"J 	c #F5D972",
"K 	c #F6EB8E",
"L 	c #ECCF57",
"M 	c #D7AB37",
"N 	c #B39134",
"O 	c #AA8E38",
"P 	c #796227",
"Q 	c #756028",
"R 	c #204022",
"S 	c #FF4100",
"T 	c #0B0002",
"U 	c #736E6C",
"V 	c #81848B",
"W 	c #C0A659",
"X 	c #BB9C3F",
"Y 	c #DEB643",
"Z 	c #FADF60",
"` 	c #F0CF56",
" .	c #F9DF5E",
"..	c #FCFCB7",
"+.	c #FBE87F",
"@.	c #FAF591",
"#.	c #FEFA90",
"$.	c #F5D952",
"%.	c #F9E787",
"&.	c #FFFFC6",
"*.	c #F9E682",
"=.	c #E9C956",
"-.	c #FDE462",
";.	c #DCC251",
">.	c #E4500A",
",.	c #723710",
"'.	c #6C6435",
").	c #525458",
"!.	c #444444",
"~.	c #676A71",
"{.	c #BEB9AC",
"].	c #C9BE9B",
"^.	c #A07D1B",
"/.	c #B0932D",
"(.	c #DEB748",
"_.	c #F9DC5B",
":.	c #E9C350",
"<.	c #FEE666",
"[.	c #E4C051",
"}.	c #FFEE6D",
"|.	c #ECD07B",
"1.	c #FFEC67",
"2.	c #E7BD49",
"3.	c #EBC751",
"4.	c #AD8A2B",
"5.	c #B8982F",
"6.	c #7F7F64",
"7.	c #75766B",
"8.	c #4F5054",
"9.	c #20201F",
"0.	c #757575",
"a.	c #444442",
"b.	c #676766",
"c.	c #C2C5CD",
"d.	c #BDC1CD",
"e.	c #AFA173",
"f.	c #A9945C",
"g.	c #AF9B5E",
"h.	c #A18B4D",
"i.	c #BEA65B",
"j.	c #B19752",
"k.	c #C2A44B",
"l.	c #89712D",
"m.	c #7E6E3F",
"n.	c #7E7350",
"o.	c #7E828D",
"p.	c #868990",
"q.	c #454545",
"r.	c #3E3D3C",
"s.	c #3E3E3E",
"t.	c #252525",
"u.	c #656565",
"v.	c #696969",
"w.	c #464646",
"x.	c #535352",
"y.	c #67686B",
"z.	c #6C6E72",
"A.	c #707176",
"B.	c #606166",
"C.	c #626366",
"D.	c #64615C",
"E.	c #EBD25B",
"F.	c #C5A03C",
"G.	c #545043",
"H.	c #4E4E4E",
"I.	c #383837",
"J.	c #2B2B2A",
"K.	c #2B2B2B",
"L.	c #353535",
"M.	c #131313",
"N.	c #747474",
"O.	c #6D6D6D",
"P.	c #5E5E5E",
"Q.	c #4D4D4D",
"R.	c #666666",
"S.	c #535353",
"T.	c #595959",
"U.	c #5A5A5B",
"V.	c #484B54",
"W.	c #B19143",
"X.	c #E6D35D",
"Y.	c #3E3930",
"Z.	c #4A4947",
"`.	c #404040",
" +	c #141414",
".+	c #2C2C2C",
"++	c #565656",
"@+	c #707070",
"#+	c #636363",
"$+	c #717171",
"%+	c #525252",
"&+	c #6B6B6B",
"*+	c #5D5D5D",
"=+	c #393A3E",
"-+	c #DBB94B",
";+	c #393C46",
">+	c #434343",
",+	c #4B4B4B",
"'+	c #484848",
")+	c #2E2E2E",
"!+	c #343434",
"~+	c #7A7A7A",
"{+	c #676767",
"]+	c #616161",
"^+	c #6E6E6E",
"/+	c #626262",
"(+	c #5A5A5A",
"_+	c #4F4F50",
":+	c #4B4946",
"<+	c #252933",
"[+	c #51504F",
"}+	c #505050",
"|+	c #363636",
"1+	c #3B3B3B",
"2+	c #7C7C7C",
"3+	c #4A4A4A",
"4+	c #606060",
"5+	c #6A6A6A",
"6+	c #515151",
"7+	c #3F3F3F",
"8+	c #545353",
"9+	c #3C3C3C",
"0+	c #060606",
"a+	c #9FA5AB",
"b+	c #3C3B3B",
"c+	c #737373",
"d+	c #818181",
"e+	c #686868",
"f+	c #424242",
"g+	c #333333",
"h+	c #1C1B1A",
"i+	c #A7ADB3",
"j+	c #080807",
"k+	c #282829",
"l+	c #5C5957",
"m+	c #0A0F14",
"n+	c #B66B20",
"o+	c #323D48",
"p+	c #656464",
"q+	c #929292",
"r+	c #888888",
"s+	c #848484",
"t+	c #4F4F4F",
"u+	c #3B3A3A",
"v+	c #28323D",
"w+	c #B4691E",
"x+	c #BCA58E",
"y+	c #CC6B08",
"z+	c #4E5A66",
"A+	c #686767",
"B+	c #6C6C6C",
"C+	c #828282",
"D+	c #4C4C4C",
"E+	c #424140",
"F+	c #202C38",
"G+	c #D06E0C",
"H+	c #100200",
"I+	c #C0670E",
"J+	c #5D6064",
"K+	c #646260",
"L+	c #707171",
"M+	c #555555",
"N+	c #393735",
"O+	c #2D3033",
"P+	c #BF670E",
"Q+	c #4B4947",
"R+	c #5F5F5F",
"S+	c #646464",
"T+	c #494949",
"U+	c #292725",
"V+	c #050606",
"W+	c #585858",
"X+	c #545454",
"Y+	c #383838",
"Z+	c #020202",
"`+	c #080808",
" @	c #565555",
".@	c #4C4C4B",
"+@	c #4C4B4A",
"@@	c #3D3D3D",
"#@	c #40403F",
"$@	c #373736",
"%@	c #323131",
"&@	c #040404",
"*@	c #0B0908",
"=@	c #3A494D",
"-@	c #313749",
";@	c #3D4457",
">@	c #4E4A44",
",@	c #5C5954",
"'@	c #5D5E5E",
")@	c #413D39",
"!@	c #49453F",
"~@	c #3E4558",
"{@	c #33394B",
"]@	c #2F3E42",
"^@	c #070504",
"/@	c #3C4748",
"(@	c #D53405",
"_@	c #E87700",
":@	c #FF6A00",
"<@	c #989678",
"[@	c #8E7C4F",
"}@	c #4F5866",
"|@	c #595F68",
"1@	c #636574",
"2@	c #606062",
"3@	c #636364",
"4@	c #666974",
"5@	c #535262",
"6@	c #555F6C",
"7@	c #867246",
"8@	c #9D9B79",
"9@	c #EC7700",
"0@	c #D53304",
"a@	c #3D4748",
"b@	c #152331",
"c@	c #E37404",
"d@	c #070000",
"e@	c #C40000",
"f@	c #C20001",
"g@	c #FF5700",
"h@	c #FF0B00",
"i@	c #E3AD21",
"j@	c #EF9E25",
"k@	c #EBCD14",
"l@	c #EAEBD5",
"m@	c #EFEFE2",
"n@	c #EFC438",
"o@	c #E4F820",
"p@	c #E7A521",
"q@	c #F31800",
"r@	c #DA1E00",
"s@	c #F50001",
"t@	c #B50000",
"u@	c #060000",
"v@	c #000005",
"w@	c #520100",
"x@	c #530000",
"y@	c #E13A00",
"z@	c #D20004",
"A@	c #FF2B05",
"B@	c #FF6407",
"C@	c #F7D100",
"D@	c #FFD74D",
"E@	c #FF7800",
"F@	c #FC0903",
"G@	c #CF0004",
"H@	c #C30300",
"I@	c #872900",
"J@	c #3D0000",
"K@	c #000100",
"L@	c #100000",
"M@	c #200100",
"N@	c #710E00",
"O@	c #410000",
"P@	c #BB0803",
"Q@	c #270A00",
"R@	c #2D0501",
"S@	c #600000",
"T@	c #1F0100",
"U@	c #000200",
"V@	c #000300",
"                                                                ",
"                                                                ",
"                                                                ",
"                                                      . +       ",
"                                                    @ # $       ",
"                      $ $ $ $ $ $ $ $ $ $         $ % &         ",
"                  * = - ; > , ' ) ! ~ { ] ^ /     ( _           ",
"            $ : < [ } | 1 2 3 4 5 6 7 8 9 0 a b c d e           ",
"          f g h $ i j k l m n o p q r s t u v w x y z           ",
"          A $ B C D E F G H I J K L M N O P Q R S T U           ",
"          V W X Y Z `  ...+.@.#.$.%.&.*.=.-.;.>.,.'.).          ",
"          !.~.{.].^./.(._.:.<.[.}.|.1.2.3.4.5.6.7.8.9.          ",
"          $ 0.a.b.c.d.e.f.g.h.i.j.k.l.m.n.o.p.q.r.s.$           ",
"            t.u.v.w.x.y.z.A.B.C.D.E.F.G.H.I.J.K.L.M.            ",
"            K.N.v.O.P.Q.R.S.T.U.V.W.X.Y.Z.!.`.Q.!. +            ",
"        $ .+++] @+#+$+O.%+[ &+*+*+=+-+;+>+>+,+'+0 )+!+$         ",
"      $ ~+Q.{+]+&+^+[ /+T.(+H.S._+:+<+[+Q.}+0 `.|+1+= 2+$       ",
"      #+w.3+{ 4+5+*+*+S.(+`.H.`.6+7+8+'+>+>+9+9+!+9+0 %+]+      ",
"      O.0+a+b+c+d+N./+e+4+*+%+,+0 q.9+>+f+f+`.g+s.h+i+j+^+      ",
"    k+l+m+n+o+p+q+r+s+~+5+#+&+S.(+H.a ,+,+t+s.g+u+v+w+m+l+k+    ",
"      x+$ y+z+A+v.~+^+B+~ C+B+R.v.P.[ D+H.0 !.0 E+F+G+$ x+      ",
"      H+I+J+K+L+4+/+B+e+B+O.]+M+4+S.}+H.0 >+'+w.g+N+O+P+H+      ",
"        $ Q+(+R+*+&+O.{+S+4+6+/+,+6+a T+0 f+7+>+9+9+U+$         ",
"          V+4+P.]+S.]+W+X+*+4+%+S.>+D+T+a 3+H.T+Y+q.Z+          ",
"            `+ @.@+@R+P.P.D+t+Q.9+Q.7+@@t+0 #@$@%@&@            ",
"            *@=@-@;@>@,@'@P.%+}+S.6+S.f+)@!@~@{@]@^@            ",
"          $ /@(@_@:@<@[@}@|@1@2@3@4@5@6@7@8@:@9@0@a@$           ",
"          b@c@d@e@f@g@h@i@j@k@l@m@n@o@p@q@r@s@t@u@c@b@          ",
"          $ v@  $ w@x@y@z@A@B@C@D@E@F@G@H@I@J@K@  v@$           ",
"                      L@M@N@O@P@Q@R@S@T@$                       ",
"                          U@  V@    $                           ",
"                                                                "};
